<svg width="238" height="300" viewBox="0 0 238 300" fill="none" xmlns="http://www.w3.org/2000/svg">
<path opacity="0.25" d="M0.890113 294H-2.04412V296.934H0.890113V294ZM0.890113 6.28364V3.3494H-2.04412V6.28364H0.890113ZM67.9701 47.5014V44.5672H65.0358V47.5014H67.9701ZM67.9701 252.782H65.0358V255.716H67.9701V252.782ZM3.82435 294V6.28364H-2.04412V294H3.82435ZM0.890113 9.21787H69.9905V3.3494H0.890113V9.21787ZM69.9905 9.21787C88.7394 9.21787 104.196 9.97737 116.869 12.4046C129.519 14.8272 139.198 18.8758 146.554 25.3124C161.246 38.1681 167.676 61.4648 167.676 104.479H173.545C173.545 61.4207 167.246 35.6197 150.418 20.8959C142.015 13.5427 131.237 9.18106 117.973 6.64086C104.734 4.10527 88.8226 3.3494 69.9905 3.3494V9.21787ZM167.676 104.479V207.119H173.545V104.479H167.676ZM167.676 207.119C167.676 234.256 163.617 254.937 149.875 268.964C136.125 283 111.987 291.066 69.9905 291.066V296.934C112.45 296.934 138.622 288.836 154.068 273.07C169.522 257.295 173.545 234.536 173.545 207.119H167.676ZM69.9905 291.066H0.890113V296.934H69.9905V291.066ZM65.0358 47.5014V252.782H70.9043V47.5014H65.0358ZM67.9701 255.716C84.5105 255.716 94.7101 252.593 100.394 244.815C103.175 241.009 104.662 236.355 105.477 231.067C106.291 225.789 106.465 219.661 106.465 212.777H100.596C100.596 219.632 100.417 225.374 99.6771 230.173C98.9389 234.962 97.6729 238.592 95.6556 241.353C91.742 246.708 84.1614 249.848 67.9701 249.848V255.716ZM106.465 212.777V94.3766H100.596V212.777H106.465ZM106.465 94.3766C106.465 84.8012 106.366 76.9148 105.664 70.5358C104.964 64.1751 103.632 58.9534 100.915 54.9073C98.1201 50.7449 94.079 48.1433 88.6464 46.6041C83.3178 45.0943 76.5197 44.5672 67.9701 44.5672V50.4357C76.3925 50.4357 82.5254 50.9693 87.0466 52.2503C91.4639 53.5019 94.1914 55.4211 96.0434 58.1789C97.9734 61.0529 99.1674 65.1506 99.831 71.178C100.493 77.187 100.596 84.7574 100.596 94.3766H106.465ZM334.62 294V296.934H337.554V294H334.62ZM195.611 294H192.676V296.934H195.611V294ZM195.611 6.28364V3.3494H192.676V6.28364H195.611ZM334.62 6.28364H337.554V3.3494H334.62V6.28364ZM334.62 49.926V52.8602H337.554V49.926H334.62ZM262.691 49.926V46.9918H259.756V49.926H262.691ZM262.691 112.965H259.756V115.899H262.691V112.965ZM332.195 112.965H335.129V110.031H332.195V112.965ZM332.195 156.607V159.542H335.129V156.607H332.195ZM262.691 156.607V153.673H259.756V156.607H262.691ZM262.691 250.358H259.756V253.292H262.691V250.358ZM334.62 250.358H337.554V247.423H334.62V250.358ZM334.62 291.066H195.611V296.934H334.62V291.066ZM198.545 294V6.28364H192.676V294H198.545ZM195.611 9.21787H334.62V3.3494H195.611V9.21787ZM331.686 6.28364V49.926H337.554V6.28364H331.686ZM334.62 46.9918H262.691V52.8602H334.62V46.9918ZM259.756 49.926V112.965H265.625V49.926H259.756ZM262.691 115.899H332.195V110.031H262.691V115.899ZM329.261 112.965V156.607H335.129V112.965H329.261ZM332.195 153.673H262.691V159.542H332.195V153.673ZM259.756 156.607V250.358H265.625V156.607H259.756ZM262.691 253.292H334.62V247.423H262.691V253.292ZM331.686 250.358V294H337.554V250.358H331.686ZM392.857 294L389.957 294.448L390.341 296.934H392.857V294ZM348.406 6.28364V3.3494H344.984L345.507 6.73164L348.406 6.28364ZM420.335 6.28364L423.262 6.07041L423.064 3.3494H420.335V6.28364ZM436.499 228.132L433.573 228.346L433.771 231.067H436.499V228.132ZM437.308 228.132V231.067H439.882L440.217 228.514L437.308 228.132ZM466.402 6.28364V3.3494H463.828L463.493 5.90209L466.402 6.28364ZM529.037 6.28364L531.931 6.76734L532.503 3.3494H529.037V6.28364ZM480.95 294V296.934H483.434L483.844 294.484L480.95 294ZM395.757 293.552L351.306 5.83563L345.507 6.73164L389.957 294.448L395.757 293.552ZM348.406 9.21787H420.335V3.3494H348.406V9.21787ZM417.409 6.49686L433.573 228.346L439.426 227.919L423.262 6.07041L417.409 6.49686ZM436.499 231.067H437.308V225.198H436.499V231.067ZM440.217 228.514L469.312 6.66519L463.493 5.90209L434.398 227.751L440.217 228.514ZM466.402 9.21787H529.037V3.3494H466.402V9.21787ZM526.143 5.79993L478.056 293.516L483.844 294.484L531.931 6.76734L526.143 5.79993ZM480.95 291.066H392.857V296.934H480.95V291.066ZM615.46 294V296.934H618.394V294H615.46ZM548.38 294H545.446V296.934H548.38V294ZM548.38 6.28364V3.3494H545.446V6.28364H548.38ZM615.46 6.28364H618.394V3.3494H615.46V6.28364ZM615.46 291.066H548.38V296.934H615.46V291.066ZM551.314 294V6.28364H545.446V294H551.314ZM548.38 9.21787H615.46V3.3494H548.38V9.21787ZM612.526 6.28364V294H618.394V6.28364H612.526ZM779.16 294V296.934H782.094V294H779.16ZM639.343 294H636.409V296.934H639.343V294ZM639.343 6.28364V3.3494H636.409V6.28364H639.343ZM706.423 6.28364H709.357V3.3494H706.423V6.28364ZM706.423 250.358H703.489V253.292H706.423V250.358ZM779.16 250.358H782.094V247.423H779.16V250.358ZM779.16 291.066H639.343V296.934H779.16V291.066ZM642.277 294V6.28364H636.409V294H642.277ZM639.343 9.21787H706.423V3.3494H639.343V9.21787ZM703.489 6.28364V250.358H709.357V6.28364H703.489ZM706.423 253.292H779.16V247.423H706.423V253.292ZM776.226 250.358V294H782.094V250.358H776.226ZM864.068 294V296.934H867.002V294H864.068ZM796.988 294H794.053V296.934H796.988V294ZM796.988 6.28364V3.3494H794.053V6.28364H796.988ZM935.997 6.28364H938.931V3.3494H935.997V6.28364ZM935.997 49.926V52.8602H938.931V49.926H935.997ZM864.068 49.926V46.9918H861.133V49.926H864.068ZM864.068 112.965H861.133V115.899H864.068V112.965ZM933.572 112.965H936.506V110.031H933.572V112.965ZM933.572 156.607V159.542H936.506V156.607H933.572ZM864.068 156.607V153.673H861.133V156.607H864.068ZM864.068 291.066H796.988V296.934H864.068V291.066ZM799.922 294V6.28364H794.053V294H799.922ZM796.988 9.21787H935.997V3.3494H796.988V9.21787ZM933.062 6.28364V49.926H938.931V6.28364H933.062ZM935.997 46.9918H864.068V52.8602H935.997V46.9918ZM861.133 49.926V112.965H867.002V49.926H861.133ZM864.068 115.899H933.572V110.031H864.068V115.899ZM930.638 112.965V156.607H936.506V112.965H930.638ZM933.572 153.673H864.068V159.542H933.572V153.673ZM861.133 156.607V294H867.002V156.607H861.133ZM1021.31 294V296.934H1024.24V294H1021.31ZM954.228 294H951.294V296.934H954.228V294ZM954.228 6.28364V3.3494H951.294V6.28364H954.228ZM1021.31 6.28364H1024.24V3.3494H1021.31V6.28364ZM1021.31 291.066H954.228V296.934H1021.31V291.066ZM957.163 294V6.28364H951.294V294H957.163ZM954.228 9.21787H1021.31V3.3494H954.228V9.21787ZM1018.37 6.28364V294H1024.24V6.28364H1018.37ZM1215.72 109.328V112.262H1218.65V109.328H1215.72ZM1148.64 109.328H1145.71V112.262H1148.64V109.328ZM1046 182.065V179.131H1043.07V182.065H1046ZM1113.08 182.065H1116.01V179.131H1113.08V182.065ZM1215.72 106.394H1148.64V112.262H1215.72V106.394ZM1151.57 109.328V68.9185H1145.71V109.328H1151.57ZM1151.57 68.9185C1151.57 61.6573 1150.46 55.3221 1147.12 50.7669C1143.63 46.0084 1138.16 43.759 1130.86 43.759V49.6275C1136.9 49.6275 1140.32 51.4191 1142.38 54.2373C1144.6 57.2589 1145.71 62.0364 1145.71 68.9185H1151.57ZM1130.86 43.759C1123.04 43.759 1117.48 45.9606 1114.1 50.8302C1110.92 55.4195 1110.14 61.7916 1110.14 68.9185H1116.01C1116.01 61.9021 1116.85 57.1615 1118.93 54.174C1120.8 51.4668 1124.13 49.6275 1130.86 49.6275V43.759ZM1110.14 68.9185C1110.14 82.1961 1117.21 92.8838 1127.05 102.636C1136.81 112.308 1149.94 121.636 1162.56 131.816C1188.05 152.396 1212.79 177.399 1212.79 220.455H1218.65C1218.65 174.609 1192.06 148.09 1166.24 127.25C1153.2 116.72 1140.67 107.864 1131.18 98.4673C1121.78 89.1512 1116.01 79.8867 1116.01 68.9185H1110.14ZM1212.79 220.455C1212.79 247.02 1205.66 265.899 1192.17 278.193C1178.64 290.536 1158.17 296.723 1130.46 296.723V302.592C1158.91 302.592 1181.08 296.252 1196.13 282.53C1211.23 268.76 1218.65 248.038 1218.65 220.455H1212.79ZM1130.46 296.723C1109.28 296.723 1088.81 293.113 1073.72 283.682C1058.84 274.381 1048.93 259.27 1048.93 235.406H1043.07C1043.07 261.246 1053.97 278.26 1070.61 288.659C1087.04 298.928 1108.79 302.592 1130.46 302.592V296.723ZM1048.93 235.406V182.065H1043.07V235.406H1048.93ZM1046 185H1113.08V179.131H1046V185ZM1110.14 182.065V231.769H1116.01V182.065H1110.14ZM1110.14 231.769C1110.14 240.387 1111.44 246.781 1115.05 250.962C1118.78 255.28 1124.33 256.525 1130.86 256.525V250.656C1124.87 250.656 1121.52 249.476 1119.49 247.126C1117.34 244.64 1116.01 240.123 1116.01 231.769H1110.14ZM1130.86 256.525C1136.69 256.525 1142.12 255.231 1146 251.036C1149.81 246.906 1151.57 240.553 1151.57 231.769H1145.71C1145.71 239.958 1144.03 244.516 1141.69 247.053C1139.4 249.525 1135.94 250.656 1130.86 250.656V256.525ZM1151.57 231.769C1151.57 214.603 1144.76 201.659 1134.79 190.555C1124.94 179.589 1111.79 170.205 1099.13 160.306C1073.62 140.375 1048.93 117.598 1048.93 72.5554H1043.07C1043.07 120.455 1069.7 144.755 1095.51 164.93C1108.51 175.085 1121.02 184.011 1130.42 194.476C1139.69 204.801 1145.71 216.406 1145.71 231.769H1151.57ZM1048.93 72.5554C1048.93 47.1937 1057.25 30.1705 1071.42 19.3768C1085.74 8.46898 1106.5 3.56053 1132.07 3.56053V-2.30794C1105.92 -2.30794 1083.65 2.68395 1067.86 14.7085C1051.93 26.8473 1043.07 45.7886 1043.07 72.5554H1048.93ZM1132.07 3.56053C1154.46 3.56053 1174.71 7.37325 1189.28 16.7801C1203.64 26.0531 1212.79 40.953 1212.79 64.0694H1218.65C1218.65 39.0983 1208.61 22.2767 1192.46 11.85C1176.52 1.55715 1154.95 -2.30794 1132.07 -2.30794V3.56053ZM1212.79 64.0694V109.328H1218.65V64.0694H1212.79ZM1308.61 294V296.934H1311.54V294H1308.61ZM1241.53 294H1238.59V296.934H1241.53V294ZM1241.53 6.28364V3.3494H1238.59V6.28364H1241.53ZM1308.61 6.28364H1311.54V3.3494H1308.61V6.28364ZM1308.61 112.965H1305.67V115.899H1308.61V112.965ZM1344.17 112.965V115.899H1347.1V112.965H1344.17ZM1344.17 6.28364V3.3494H1341.23V6.28364H1344.17ZM1411.25 6.28364H1414.18V3.3494H1411.25V6.28364ZM1411.25 294V296.934H1414.18V294H1411.25ZM1344.17 294H1341.23V296.934H1344.17V294ZM1344.17 156.607H1347.1V153.673H1344.17V156.607ZM1308.61 156.607V153.673H1305.67V156.607H1308.61ZM1308.61 291.066H1241.53V296.934H1308.61V291.066ZM1244.46 294V6.28364H1238.59V294H1244.46ZM1241.53 9.21787H1308.61V3.3494H1241.53V9.21787ZM1305.67 6.28364V112.965H1311.54V6.28364H1305.67ZM1308.61 115.899H1344.17V110.031H1308.61V115.899ZM1347.1 112.965V6.28364H1341.23V112.965H1347.1ZM1344.17 9.21787H1411.25V3.3494H1344.17V9.21787ZM1408.31 6.28364V294H1414.18V6.28364H1408.31ZM1411.25 291.066H1344.17V296.934H1411.25V291.066ZM1347.1 294V156.607H1341.23V294H1347.1ZM1344.17 153.673H1308.61V159.542H1344.17V153.673ZM1305.67 156.607V294H1311.54V156.607H1305.67Z" fill="white"/>
</svg>
