<svg width="783" height="300" viewBox="0 0 783 300" fill="none" xmlns="http://www.w3.org/2000/svg">
<path opacity="0.25" d="M-628.11 294H-631.044V296.934H-628.11V294ZM-628.11 6.28364V3.3494H-631.044V6.28364H-628.11ZM-561.03 47.5014V44.5672H-563.964V47.5014H-561.03ZM-561.03 252.782H-563.964V255.716H-561.03V252.782ZM-625.176 294V6.28364H-631.044V294H-625.176ZM-628.11 9.21787H-559.009V3.3494H-628.11V9.21787ZM-559.009 9.21787C-540.261 9.21787 -524.804 9.97737 -512.131 12.4046C-499.481 14.8272 -489.802 18.8758 -482.446 25.3124C-467.754 38.1681 -461.324 61.4648 -461.324 104.479H-455.455C-455.455 61.4207 -461.754 35.6197 -478.582 20.8959C-486.985 13.5427 -497.763 9.18106 -511.027 6.64086C-524.266 4.10527 -540.177 3.3494 -559.009 3.3494V9.21787ZM-461.324 104.479V207.119H-455.455V104.479H-461.324ZM-461.324 207.119C-461.324 234.256 -465.383 254.937 -479.125 268.964C-492.875 283 -517.013 291.066 -559.009 291.066V296.934C-516.55 296.934 -490.378 288.836 -474.932 273.07C-459.478 257.295 -455.455 234.536 -455.455 207.119H-461.324ZM-559.009 291.066H-628.11V296.934H-559.009V291.066ZM-563.964 47.5014V252.782H-558.096V47.5014H-563.964ZM-561.03 255.716C-544.489 255.716 -534.29 252.593 -528.606 244.815C-525.825 241.009 -524.338 236.355 -523.523 231.067C-522.709 225.789 -522.535 219.661 -522.535 212.777H-528.404C-528.404 219.632 -528.583 225.374 -529.323 230.173C-530.061 234.962 -531.327 238.592 -533.344 241.353C-537.258 246.708 -544.839 249.848 -561.03 249.848V255.716ZM-522.535 212.777V94.3766H-528.404V212.777H-522.535ZM-522.535 94.3766C-522.535 84.8012 -522.634 76.9148 -523.336 70.5358C-524.036 64.1751 -525.368 58.9534 -528.085 54.9073C-530.88 50.7449 -534.921 48.1433 -540.354 46.6041C-545.682 45.0943 -552.48 44.5672 -561.03 44.5672V50.4357C-552.608 50.4357 -546.475 50.9693 -541.953 52.2503C-537.536 53.5019 -534.809 55.4211 -532.957 58.1789C-531.027 61.0529 -529.833 65.1506 -529.169 71.178C-528.507 77.187 -528.404 84.7574 -528.404 94.3766H-522.535ZM-294.38 294V296.934H-291.446V294H-294.38ZM-433.389 294H-436.324V296.934H-433.389V294ZM-433.389 6.28364V3.3494H-436.324V6.28364H-433.389ZM-294.38 6.28364H-291.446V3.3494H-294.38V6.28364ZM-294.38 49.926V52.8602H-291.446V49.926H-294.38ZM-366.309 49.926V46.9918H-369.244V49.926H-366.309ZM-366.309 112.965H-369.244V115.899H-366.309V112.965ZM-296.805 112.965H-293.871V110.031H-296.805V112.965ZM-296.805 156.607V159.542H-293.871V156.607H-296.805ZM-366.309 156.607V153.673H-369.244V156.607H-366.309ZM-366.309 250.358H-369.244V253.292H-366.309V250.358ZM-294.38 250.358H-291.446V247.423H-294.38V250.358ZM-294.38 291.066H-433.389V296.934H-294.38V291.066ZM-430.455 294V6.28364H-436.324V294H-430.455ZM-433.389 9.21787H-294.38V3.3494H-433.389V9.21787ZM-297.314 6.28364V49.926H-291.446V6.28364H-297.314ZM-294.38 46.9918H-366.309V52.8602H-294.38V46.9918ZM-369.244 49.926V112.965H-363.375V49.926H-369.244ZM-366.309 115.899H-296.805V110.031H-366.309V115.899ZM-299.739 112.965V156.607H-293.871V112.965H-299.739ZM-296.805 153.673H-366.309V159.542H-296.805V153.673ZM-369.244 156.607V250.358H-363.375V156.607H-369.244ZM-366.309 253.292H-294.38V247.423H-366.309V253.292ZM-297.314 250.358V294H-291.446V250.358H-297.314ZM-236.143 294L-239.043 294.448L-238.659 296.934H-236.143V294ZM-280.594 6.28364V3.3494H-284.016L-283.493 6.73164L-280.594 6.28364ZM-208.665 6.28364L-205.738 6.07041L-205.936 3.3494H-208.665V6.28364ZM-192.501 228.132L-195.427 228.346L-195.229 231.067H-192.501V228.132ZM-191.692 228.132V231.067H-189.118L-188.783 228.514L-191.692 228.132ZM-162.598 6.28364V3.3494H-165.172L-165.507 5.90209L-162.598 6.28364ZM-99.9627 6.28364L-97.0686 6.76734L-96.4974 3.3494H-99.9627V6.28364ZM-148.05 294V296.934H-145.566L-145.156 294.484L-148.05 294ZM-233.243 293.552L-277.694 5.83563L-283.493 6.73164L-239.043 294.448L-233.243 293.552ZM-280.594 9.21787H-208.665V3.3494H-280.594V9.21787ZM-211.591 6.49686L-195.427 228.346L-189.574 227.919L-205.738 6.07041L-211.591 6.49686ZM-192.501 231.067H-191.692V225.198H-192.501V231.067ZM-188.783 228.514L-159.688 6.66519L-165.507 5.90209L-194.602 227.751L-188.783 228.514ZM-162.598 9.21787H-99.9627V3.3494H-162.598V9.21787ZM-102.857 5.79993L-150.944 293.516L-145.156 294.484L-97.0686 6.76734L-102.857 5.79993ZM-148.05 291.066H-236.143V296.934H-148.05V291.066ZM-13.5399 294V296.934H-10.6056V294H-13.5399ZM-80.6198 294H-83.554V296.934H-80.6198V294ZM-80.6198 6.28364V3.3494H-83.554V6.28364H-80.6198ZM-13.5399 6.28364H-10.6056V3.3494H-13.5399V6.28364ZM-13.5399 291.066H-80.6198V296.934H-13.5399V291.066ZM-77.6855 294V6.28364H-83.554V294H-77.6855ZM-80.6198 9.21787H-13.5399V3.3494H-80.6198V9.21787ZM-16.4741 6.28364V294H-10.6056V6.28364H-16.4741ZM150.16 294V296.934H153.094V294H150.16ZM10.3429 294H7.40869V296.934H10.3429V294ZM10.3429 6.28364V3.3494H7.40869V6.28364H10.3429ZM77.4229 6.28364H80.3571V3.3494H77.4229V6.28364ZM77.4229 250.358H74.4886V253.292H77.4229V250.358ZM150.16 250.358H153.094V247.423H150.16V250.358ZM150.16 291.066H10.3429V296.934H150.16V291.066ZM13.2772 294V6.28364H7.40869V294H13.2772ZM10.3429 9.21787H77.4229V3.3494H10.3429V9.21787ZM74.4886 6.28364V250.358H80.3571V6.28364H74.4886ZM77.4229 253.292H150.16V247.423H77.4229V253.292ZM147.226 250.358V294H153.094V250.358H147.226ZM235.068 294V296.934H238.002V294H235.068ZM167.988 294H165.053V296.934H167.988V294ZM167.988 6.28364V3.3494H165.053V6.28364H167.988ZM306.997 6.28364H309.931V3.3494H306.997V6.28364ZM306.997 49.926V52.8602H309.931V49.926H306.997ZM235.068 49.926V46.9918H232.133V49.926H235.068ZM235.068 112.965H232.133V115.899H235.068V112.965ZM304.572 112.965H307.506V110.031H304.572V112.965ZM304.572 156.607V159.542H307.506V156.607H304.572ZM235.068 156.607V153.673H232.133V156.607H235.068ZM235.068 291.066H167.988V296.934H235.068V291.066ZM170.922 294V6.28364H165.053V294H170.922ZM167.988 9.21787H306.997V3.3494H167.988V9.21787ZM304.062 6.28364V49.926H309.931V6.28364H304.062ZM306.997 46.9918H235.068V52.8602H306.997V46.9918ZM232.133 49.926V112.965H238.002V49.926H232.133ZM235.068 115.899H304.572V110.031H235.068V115.899ZM301.638 112.965V156.607H307.506V112.965H301.638ZM304.572 153.673H235.068V159.542H304.572V153.673ZM232.133 156.607V294H238.002V156.607H232.133ZM392.308 294V296.934H395.243V294H392.308ZM325.228 294H322.294V296.934H325.228V294ZM325.228 6.28364V3.3494H322.294V6.28364H325.228ZM392.308 6.28364H395.243V3.3494H392.308V6.28364ZM392.308 291.066H325.228V296.934H392.308V291.066ZM328.163 294V6.28364H322.294V294H328.163ZM325.228 9.21787H392.308V3.3494H325.228V9.21787ZM389.374 6.28364V294H395.243V6.28364H389.374ZM586.72 109.328V112.262H589.654V109.328H586.72ZM519.64 109.328H516.705V112.262H519.64V109.328ZM416.999 182.065V179.131H414.065V182.065H416.999ZM484.079 182.065H487.013V179.131H484.079V182.065ZM586.72 106.394H519.64V112.262H586.72V106.394ZM522.574 109.328V68.9185H516.705V109.328H522.574ZM522.574 68.9185C522.574 61.6573 521.457 55.3221 518.116 50.7669C514.627 46.0084 509.156 43.759 501.859 43.759V49.6275C507.898 49.6275 511.317 51.4191 513.384 54.2373C515.6 57.2589 516.705 62.0364 516.705 68.9185H522.574ZM501.859 43.759C494.042 43.759 488.479 45.9606 485.103 50.8302C481.921 55.4195 481.145 61.7916 481.145 68.9185H487.013C487.013 61.9021 487.854 57.1615 489.925 54.174C491.802 51.4668 495.13 49.6275 501.859 49.6275V43.759ZM481.145 68.9185C481.145 82.1961 488.209 92.8838 498.052 102.636C507.813 112.308 520.943 121.636 533.557 131.816C559.055 152.396 583.785 177.399 583.785 220.455H589.654C589.654 174.609 563.064 148.09 537.242 127.25C524.196 116.72 511.666 107.864 502.182 98.4673C492.78 89.1512 487.013 79.8867 487.013 68.9185H481.145ZM583.785 220.455C583.785 247.02 576.659 265.899 563.174 278.193C549.636 290.536 529.166 296.723 501.455 296.723V302.592C529.914 302.592 552.076 296.252 567.128 282.53C582.232 268.76 589.654 248.038 589.654 220.455H583.785ZM501.455 296.723C480.284 296.723 459.809 293.113 444.72 283.682C429.838 274.381 419.933 259.27 419.933 235.406H414.065C414.065 261.246 424.971 278.26 441.609 288.659C458.039 298.928 479.792 302.592 501.455 302.592V296.723ZM419.933 235.406V182.065H414.065V235.406H419.933ZM416.999 185H484.079V179.131H416.999V185ZM481.145 182.065V231.769H487.013V182.065H481.145ZM481.145 231.769C481.145 240.387 482.44 246.781 486.051 250.962C489.78 255.28 495.327 256.525 501.859 256.525V250.656C495.865 250.656 492.521 249.476 490.492 247.126C488.345 244.64 487.013 240.123 487.013 231.769H481.145ZM501.859 256.525C507.693 256.525 513.118 255.231 516.996 251.036C520.813 246.906 522.574 240.553 522.574 231.769H516.705C516.705 239.958 515.031 244.516 512.686 247.053C510.401 249.525 506.936 250.656 501.859 250.656V256.525ZM522.574 231.769C522.574 214.603 515.758 201.659 505.785 190.555C495.938 179.589 482.793 170.205 470.126 160.306C444.622 140.375 419.933 117.598 419.933 72.5554H414.065C414.065 120.455 440.696 144.755 466.513 164.93C479.506 175.085 492.022 184.011 501.419 194.476C510.691 204.801 516.705 216.406 516.705 231.769H522.574ZM419.933 72.5554C419.933 47.1937 428.247 30.1705 442.417 19.3768C456.736 8.46898 477.502 3.56053 503.072 3.56053V-2.30794C476.917 -2.30794 454.646 2.68395 438.861 14.7085C422.925 26.8473 414.065 45.7886 414.065 72.5554H419.933ZM503.072 3.56053C525.457 3.56053 545.708 7.37325 560.276 16.7801C574.637 26.0531 583.785 40.953 583.785 64.0694H589.654C589.654 39.0983 579.607 22.2767 563.459 11.85C547.519 1.55715 525.945 -2.30794 503.072 -2.30794V3.56053ZM583.785 64.0694V109.328H589.654V64.0694H583.785ZM679.608 294V296.934H682.542V294H679.608ZM612.528 294H609.594V296.934H612.528V294ZM612.528 6.28364V3.3494H609.594V6.28364H612.528ZM679.608 6.28364H682.542V3.3494H679.608V6.28364ZM679.608 112.965H676.674V115.899H679.608V112.965ZM715.168 112.965V115.899H718.103V112.965H715.168ZM715.168 6.28364V3.3494H712.234V6.28364H715.168ZM782.248 6.28364H785.183V3.3494H782.248V6.28364ZM782.248 294V296.934H785.183V294H782.248ZM715.168 294H712.234V296.934H715.168V294ZM715.168 156.607H718.103V153.673H715.168V156.607ZM679.608 156.607V153.673H676.674V156.607H679.608ZM679.608 291.066H612.528V296.934H679.608V291.066ZM615.462 294V6.28364H609.594V294H615.462ZM612.528 9.21787H679.608V3.3494H612.528V9.21787ZM676.674 6.28364V112.965H682.542V6.28364H676.674ZM679.608 115.899H715.168V110.031H679.608V115.899ZM718.103 112.965V6.28364H712.234V112.965H718.103ZM715.168 9.21787H782.248V3.3494H715.168V9.21787ZM779.314 6.28364V294H785.183V6.28364H779.314ZM782.248 291.066H715.168V296.934H782.248V291.066ZM718.103 294V156.607H712.234V294H718.103ZM715.168 153.673H679.608V159.542H715.168V153.673ZM676.674 156.607V294H682.542V156.607H676.674Z" fill="white"/>
</svg>
