<svg width="233" height="454" viewBox="0 0 233 454" fill="none" xmlns="http://www.w3.org/2000/svg">
<path opacity="0.25" d="M102.128 71.3331V68.3989H99.1935V71.3331H102.128ZM102.128 214.018H99.1935V216.952H102.128V214.018ZM102.128 444.886V447.82H105.062V444.886H102.128ZM0.472389 444.886H-2.46184V447.82H0.472389V444.886ZM0.472389 8.87025V5.93602H-2.46184V8.87025H0.472389ZM102.128 276.481V273.547H99.1935V276.481H102.128ZM99.1935 71.3331V214.018H105.062V71.3331H99.1935ZM102.128 216.952H118.05V211.084H102.128V216.952ZM118.05 216.952C127.155 216.952 134.488 215.704 140.29 212.771C146.189 209.789 150.267 205.187 153.033 198.985C155.756 192.878 157.208 185.225 158.003 176.035C158.8 166.824 158.951 155.84 158.951 142.982H153.083C153.083 155.843 152.929 166.599 152.156 175.53C151.382 184.482 150.002 191.373 147.673 196.595C145.387 201.721 142.192 205.234 137.643 207.534C132.996 209.882 126.703 211.084 118.05 211.084V216.952ZM158.951 142.982C158.951 130.123 158.8 119.101 158.003 109.834C157.208 100.588 155.757 92.8636 153.038 86.6857C150.28 80.4161 146.212 75.7341 140.313 72.6874C134.506 69.6882 127.165 68.3989 118.05 68.3989V74.2674C126.693 74.2674 132.978 75.5042 137.62 77.9015C142.17 80.2514 145.373 83.8366 147.667 89.0492C150.001 94.3534 151.382 101.326 152.156 110.337C152.929 119.326 153.083 130.12 153.083 142.982H158.951ZM118.05 68.3989H102.128V74.2674H118.05V68.3989ZM102.128 441.952H0.472389V447.82H102.128V441.952ZM3.40662 444.886V8.87025H-2.46184V444.886H3.40662ZM0.472389 11.8045H124.786V5.93602H0.472389V11.8045ZM124.786 11.8045C165.122 11.8045 197.638 16.4173 220.021 29.9808C242.077 43.3455 254.738 65.6935 254.738 102.565H260.607C260.607 64.1128 247.242 39.6136 223.063 24.9619C199.211 10.509 165.284 5.93602 124.786 5.93602V11.8045ZM254.738 102.565V182.174H260.607V102.565H254.738ZM254.738 182.174C254.738 213.926 240.706 236.626 219.403 251.493C197.985 266.442 169.077 273.547 139.483 273.547V279.415C169.902 279.415 200.089 272.129 222.762 256.305C245.551 240.401 260.607 215.947 260.607 182.174H254.738ZM139.483 273.547H102.128V279.415H139.483V273.547ZM99.1935 276.481V444.886H105.062V276.481H99.1935ZM395.505 104.402V349.354H401.373V104.402H395.505ZM395.505 349.354C395.505 358.44 396.896 367.686 401.401 374.74C406.052 382.024 413.773 386.582 425.384 386.582V380.713C415.561 380.713 409.809 377.004 406.347 371.581C402.737 365.928 401.373 358.028 401.373 349.354H395.505ZM425.384 386.582C436.994 386.582 444.715 382.024 449.367 374.74C453.871 367.686 455.263 358.44 455.263 349.354H449.394C449.394 358.028 448.03 365.928 444.421 371.581C440.958 377.004 435.206 380.713 425.384 380.713V386.582ZM455.263 349.354V104.402H449.394V349.354H455.263ZM455.263 104.402C455.263 95.3163 453.871 86.0701 449.367 79.0162C444.715 71.7317 436.994 67.1741 425.384 67.1741V73.0426C435.206 73.0426 440.958 76.7522 444.421 82.1746C448.03 87.8276 449.394 95.7281 449.394 104.402H455.263ZM425.384 67.1741C413.773 67.1741 406.052 71.7317 401.401 79.0162C396.896 86.0701 395.505 95.3163 395.505 104.402H401.373C401.373 95.7281 402.737 87.8276 406.347 82.1746C409.809 76.7522 415.561 73.0426 425.384 73.0426V67.1741ZM551.05 127.672V326.084H556.918V127.672H551.05ZM551.05 326.084C551.05 375.364 535.962 406.263 513.089 424.93C490.102 443.69 458.739 450.525 425.384 450.525V456.393C459.39 456.393 492.327 449.449 516.8 429.477C541.386 409.411 556.918 376.622 556.918 326.084H551.05ZM425.384 450.525C392.028 450.525 360.665 443.69 337.678 424.93C314.805 406.263 299.718 375.364 299.718 326.084H293.849C293.849 376.622 309.381 409.411 333.968 429.477C358.44 449.449 391.377 456.393 425.384 456.393V450.525ZM299.718 326.084V127.672H293.849V326.084H299.718ZM299.718 127.672C299.718 78.392 314.805 47.4932 337.678 28.826C360.665 10.0658 392.028 3.23116 425.384 3.23116V-2.63731C391.377 -2.63731 358.44 4.30659 333.968 24.2795C309.381 44.3454 293.849 77.1342 293.849 127.672H299.718ZM425.384 3.23116C458.739 3.23116 490.102 10.0658 513.089 28.826C535.962 47.4932 551.05 78.392 551.05 127.672H556.918C556.918 77.1342 541.386 44.3454 516.8 24.2795C492.327 4.30659 459.39 -2.63731 425.384 -2.63731V3.23116ZM694.75 444.886V447.82H697.684V444.886H694.75ZM593.095 444.886H590.161V447.82H593.095V444.886ZM593.095 8.87025V5.93602H590.161V8.87025H593.095ZM694.75 8.87025H697.684V5.93602H694.75V8.87025ZM694.75 206.669H691.816V209.604H694.75V206.669ZM695.975 206.669V209.604H698.106L698.765 207.577L695.975 206.669ZM760.275 8.87025V5.93602H758.143L757.484 7.96313L760.275 8.87025ZM857.031 8.87025L859.798 9.84821L861.181 5.93602H857.031V8.87025ZM789.057 201.158L786.29 200.18L785.98 201.057L786.232 201.953L789.057 201.158ZM857.644 444.886V447.82H861.517L860.468 444.091L857.644 444.886ZM757.213 444.886L754.385 445.669L754.981 447.82H757.213V444.886ZM695.975 223.816L698.803 223.033L698.207 220.882H695.975V223.816ZM694.75 223.816V220.882H691.816V223.816H694.75ZM694.75 441.952H593.095V447.82H694.75V441.952ZM596.029 444.886V8.87025H590.161V444.886H596.029ZM593.095 11.8045H694.75V5.93602H593.095V11.8045ZM691.816 8.87025V206.669H697.684V8.87025H691.816ZM694.75 209.604H695.975V203.735H694.75V209.604ZM698.765 207.577L763.065 9.77739L757.484 7.96313L693.184 205.762L698.765 207.577ZM760.275 11.8045H857.031V5.93602H760.275V11.8045ZM854.265 7.8923L786.29 200.18L791.823 202.136L859.798 9.84821L854.265 7.8923ZM786.232 201.953L854.819 445.681L860.468 444.091L791.881 200.363L786.232 201.953ZM857.644 441.952H757.213V447.82H857.644V441.952ZM760.041 444.102L698.803 223.033L693.147 224.599L754.385 445.669L760.041 444.102ZM695.975 220.882H694.75V226.75H695.975V220.882ZM691.816 223.816V444.886H697.684V223.816H691.816ZM1098.84 444.886V447.82H1101.77V444.886H1098.84ZM888.181 444.886H885.247V447.82H888.181V444.886ZM888.181 8.87025V5.93602H885.247V8.87025H888.181ZM1098.84 8.87025H1101.77V5.93602H1098.84V8.87025ZM1098.84 75.0074V77.9417H1101.77V75.0074H1098.84ZM989.837 75.0074V72.0732H986.902V75.0074H989.837ZM989.837 170.539H986.902V173.473H989.837V170.539ZM1095.17 170.539H1098.1V167.605H1095.17V170.539ZM1095.17 236.676V239.61H1098.1V236.676H1095.17ZM989.837 236.676V233.742H986.902V236.676H989.837ZM989.837 378.749H986.902V381.683H989.837V378.749ZM1098.84 378.749H1101.77V375.814H1098.84V378.749ZM1098.84 441.952H888.181V447.82H1098.84V441.952ZM891.116 444.886V8.87025H885.247V444.886H891.116ZM888.181 11.8045H1098.84V5.93602H888.181V11.8045ZM1095.91 8.87025V75.0074H1101.77V8.87025H1095.91ZM1098.84 72.0732H989.837V77.9417H1098.84V72.0732ZM986.902 75.0074V170.539H992.771V75.0074H986.902ZM989.837 173.473H1095.17V167.605H989.837V173.473ZM1092.23 170.539V236.676H1098.1V170.539H1092.23ZM1095.17 233.742H989.837V239.61H1095.17V233.742ZM986.902 236.676V378.749H992.771V236.676H986.902ZM989.837 381.683H1098.84V375.814H989.837V381.683ZM1095.91 378.749V444.886H1101.77V378.749H1095.91ZM1228.74 444.886V447.82H1231.67V444.886H1228.74ZM1127.08 444.886H1124.15V447.82H1127.08V444.886ZM1127.08 8.87025V5.93602H1124.15V8.87025H1127.08ZM1305.9 209.731L1305.41 206.837L1302.96 207.246V209.731H1305.9ZM1305.9 210.956H1302.96V213.818L1305.82 213.889L1305.9 210.956ZM1398.98 444.886V447.82H1404.57L1401.39 443.22L1398.98 444.886ZM1296.71 444.886L1294.3 446.552L1295.17 447.82H1296.71V444.886ZM1228.74 245.862V242.928H1225.8V245.862H1228.74ZM1228.74 71.3331V68.3989H1225.8V71.3331H1228.74ZM1228.74 183.399H1225.8V186.333H1228.74V183.399ZM1228.74 441.952H1127.08V447.82H1228.74V441.952ZM1130.02 444.886V8.87025H1124.15V444.886H1130.02ZM1127.08 11.8045H1229.35V5.93602H1127.08V11.8045ZM1229.35 11.8045C1277.84 11.8045 1315.68 14.3071 1341.43 27.8483C1354.17 34.5513 1363.93 43.9577 1370.54 57.2004C1377.18 70.4997 1380.74 87.845 1380.74 110.526H1386.6C1386.6 87.2775 1382.96 68.9516 1375.79 54.5789C1368.58 40.1496 1357.9 29.8832 1344.16 22.6546C1316.93 8.33244 1277.61 5.93602 1229.35 5.93602V11.8045ZM1380.74 110.526C1380.74 137.406 1375.14 159.21 1363.1 175.368C1351.1 191.468 1332.41 202.338 1305.41 206.837L1306.38 212.626C1334.5 207.939 1354.7 196.457 1367.8 178.876C1380.87 161.353 1386.6 138.147 1386.6 110.526H1380.74ZM1302.96 209.731V210.956H1308.83V209.731H1302.96ZM1305.82 213.889C1330.07 214.495 1348.61 219.347 1361.14 231.157C1373.62 242.922 1380.74 262.171 1380.74 293.015H1386.6C1386.6 261.396 1379.32 240.229 1365.17 226.886C1351.06 213.588 1330.72 208.641 1305.97 208.023L1305.82 213.889ZM1380.74 293.015V384.26H1386.6V293.015H1380.74ZM1380.74 384.26C1380.74 401.568 1383.8 428.038 1396.56 446.552L1401.39 443.22C1389.67 426.215 1386.6 401.245 1386.6 384.26H1380.74ZM1398.98 441.952H1296.71V447.82H1398.98V441.952ZM1299.13 443.22C1287.42 426.246 1284.95 401.318 1284.95 384.26H1279.08C1279.08 401.495 1281.51 428.007 1294.3 446.552L1299.13 443.22ZM1284.95 384.26V291.79H1279.08V384.26H1284.95ZM1284.95 291.79C1284.95 259.849 1265.55 242.928 1245.27 242.928V248.796C1261.74 248.796 1279.08 262.493 1279.08 291.79H1284.95ZM1245.27 242.928H1228.74V248.796H1245.27V242.928ZM1225.8 245.862V444.886H1231.67V245.862H1225.8ZM1225.8 71.3331V183.399H1231.67V71.3331H1225.8ZM1228.74 186.333C1251.81 186.333 1266.35 182.541 1274.84 172.511C1283.2 162.632 1284.95 147.469 1284.95 127.06H1279.08C1279.08 147.68 1277.16 160.687 1270.36 168.72C1263.69 176.602 1251.6 180.465 1228.74 180.465V186.333ZM1284.95 127.06C1284.95 116.909 1284.53 108.15 1283.12 100.751C1281.7 93.3324 1279.25 87.0993 1275.07 82.1464C1266.65 72.185 1252.1 68.3989 1228.74 68.3989V74.2674C1251.92 74.2674 1264 78.136 1270.59 85.9337C1273.9 89.8603 1276.05 95.0328 1277.35 101.852C1278.66 108.691 1279.08 117.002 1279.08 127.06H1284.95Z" fill="white"/>
</svg>
