<svg width="775" height="454" viewBox="0 0 775 454" fill="none" xmlns="http://www.w3.org/2000/svg">
<path opacity="0.25" d="M-521.872 71.3331V68.3989H-524.807V71.3331H-521.872ZM-521.872 214.018H-524.807V216.952H-521.872V214.018ZM-521.872 444.886V447.82H-518.938V444.886H-521.872ZM-623.528 444.886H-626.462V447.82H-623.528V444.886ZM-623.528 8.87025V5.93602H-626.462V8.87025H-623.528ZM-521.872 276.481V273.547H-524.807V276.481H-521.872ZM-524.807 71.3331V214.018H-518.938V71.3331H-524.807ZM-521.872 216.952H-505.95V211.084H-521.872V216.952ZM-505.95 216.952C-496.845 216.952 -489.512 215.704 -483.71 212.771C-477.811 209.789 -473.733 205.187 -470.967 198.985C-468.244 192.878 -466.792 185.225 -465.997 176.035C-465.2 166.824 -465.049 155.84 -465.049 142.982H-470.917C-470.917 155.843 -471.071 166.599 -471.844 175.53C-472.618 184.482 -473.998 191.373 -476.327 196.595C-478.613 201.721 -481.808 205.234 -486.357 207.534C-491.004 209.882 -497.297 211.084 -505.95 211.084V216.952ZM-465.049 142.982C-465.049 130.123 -465.2 119.101 -465.997 109.834C-466.792 100.588 -468.243 92.8636 -470.962 86.6857C-473.72 80.4161 -477.788 75.7341 -483.687 72.6874C-489.494 69.6882 -496.835 68.3989 -505.95 68.3989V74.2674C-497.307 74.2674 -491.022 75.5042 -486.38 77.9015C-481.83 80.2514 -478.627 83.8366 -476.333 89.0492C-473.999 94.3534 -472.618 101.326 -471.844 110.337C-471.071 119.326 -470.917 130.12 -470.917 142.982H-465.049ZM-505.95 68.3989H-521.872V74.2674H-505.95V68.3989ZM-521.872 441.952H-623.528V447.82H-521.872V441.952ZM-620.593 444.886V8.87025H-626.462V444.886H-620.593ZM-623.528 11.8045H-499.214V5.93602H-623.528V11.8045ZM-499.214 11.8045C-458.878 11.8045 -426.362 16.4173 -403.979 29.9808C-381.923 43.3455 -369.262 65.6935 -369.262 102.565H-363.393C-363.393 64.1128 -376.758 39.6136 -400.937 24.9619C-424.789 10.509 -458.716 5.93602 -499.214 5.93602V11.8045ZM-369.262 102.565V182.174H-363.393V102.565H-369.262ZM-369.262 182.174C-369.262 213.926 -383.294 236.626 -404.597 251.493C-426.015 266.442 -454.923 273.547 -484.517 273.547V279.415C-454.098 279.415 -423.911 272.129 -401.238 256.305C-378.449 240.401 -363.393 215.947 -363.393 182.174H-369.262ZM-484.517 273.547H-521.872V279.415H-484.517V273.547ZM-524.807 276.481V444.886H-518.938V276.481H-524.807ZM-228.495 104.402V349.354H-222.627V104.402H-228.495ZM-228.495 349.354C-228.495 358.44 -227.104 367.686 -222.599 374.74C-217.948 382.024 -210.227 386.582 -198.616 386.582V380.713C-208.439 380.713 -214.191 377.004 -217.653 371.581C-221.263 365.928 -222.627 358.028 -222.627 349.354H-228.495ZM-198.616 386.582C-187.006 386.582 -179.285 382.024 -174.633 374.74C-170.129 367.686 -168.737 358.44 -168.737 349.354H-174.606C-174.606 358.028 -175.97 365.928 -179.579 371.581C-183.042 377.004 -188.794 380.713 -198.616 380.713V386.582ZM-168.737 349.354V104.402H-174.606V349.354H-168.737ZM-168.737 104.402C-168.737 95.3163 -170.129 86.0701 -174.633 79.0162C-179.285 71.7317 -187.006 67.1741 -198.616 67.1741V73.0426C-188.794 73.0426 -183.042 76.7522 -179.579 82.1746C-175.97 87.8276 -174.606 95.7281 -174.606 104.402H-168.737ZM-198.616 67.1741C-210.227 67.1741 -217.948 71.7317 -222.599 79.0162C-227.104 86.0701 -228.495 95.3163 -228.495 104.402H-222.627C-222.627 95.7281 -221.263 87.8276 -217.653 82.1746C-214.191 76.7522 -208.439 73.0426 -198.616 73.0426V67.1741ZM-72.9504 127.672V326.084H-67.082V127.672H-72.9504ZM-72.9504 326.084C-72.9504 375.364 -88.038 406.263 -110.911 424.93C-133.898 443.69 -165.261 450.525 -198.616 450.525V456.393C-164.61 456.393 -131.673 449.449 -107.2 429.477C-82.6136 409.411 -67.082 376.622 -67.082 326.084H-72.9504ZM-198.616 450.525C-231.972 450.525 -263.335 443.69 -286.322 424.93C-309.195 406.263 -324.282 375.364 -324.282 326.084H-330.151C-330.151 376.622 -314.619 409.411 -290.032 429.477C-265.56 449.449 -232.623 456.393 -198.616 456.393V450.525ZM-324.282 326.084V127.672H-330.151V326.084H-324.282ZM-324.282 127.672C-324.282 78.392 -309.195 47.4932 -286.322 28.826C-263.335 10.0658 -231.972 3.23116 -198.616 3.23116V-2.63731C-232.623 -2.63731 -265.56 4.30659 -290.032 24.2795C-314.619 44.3454 -330.151 77.1342 -330.151 127.672H-324.282ZM-198.616 3.23116C-165.261 3.23116 -133.898 10.0658 -110.911 28.826C-88.038 47.4932 -72.9504 78.392 -72.9504 127.672H-67.082C-67.082 77.1342 -82.6136 44.3454 -107.2 24.2795C-131.673 4.30659 -164.61 -2.63731 -198.616 -2.63731V3.23116ZM70.7501 444.886V447.82H73.6843V444.886H70.7501ZM-30.9052 444.886H-33.8394V447.82H-30.9052V444.886ZM-30.9052 8.87025V5.93602H-33.8394V8.87025H-30.9052ZM70.7501 8.87025H73.6843V5.93602H70.7501V8.87025ZM70.7501 206.669H67.8159V209.604H70.7501V206.669ZM71.9749 206.669V209.604H74.1064L74.7654 207.577L71.9749 206.669ZM136.275 8.87025V5.93602H134.143L133.484 7.96313L136.275 8.87025ZM233.031 8.87025L235.798 9.84821L237.181 5.93602H233.031V8.87025ZM165.057 201.158L162.29 200.18L161.98 201.057L162.232 201.953L165.057 201.158ZM233.644 444.886V447.82H237.517L236.468 444.091L233.644 444.886ZM133.213 444.886L130.385 445.669L130.981 447.82H133.213V444.886ZM71.9749 223.816L74.8026 223.033L74.2068 220.882H71.9749V223.816ZM70.7501 223.816V220.882H67.8159V223.816H70.7501ZM70.7501 441.952H-30.9052V447.82H70.7501V441.952ZM-27.9709 444.886V8.87025H-33.8394V444.886H-27.9709ZM-30.9052 11.8045H70.7501V5.93602H-30.9052V11.8045ZM67.8159 8.87025V206.669H73.6843V8.87025H67.8159ZM70.7501 209.604H71.9749V203.735H70.7501V209.604ZM74.7654 207.577L139.065 9.77739L133.484 7.96313L69.1844 205.762L74.7654 207.577ZM136.275 11.8045H233.031V5.93602H136.275V11.8045ZM230.265 7.8923L162.29 200.18L167.823 202.136L235.798 9.84821L230.265 7.8923ZM162.232 201.953L230.819 445.681L236.468 444.091L167.881 200.363L162.232 201.953ZM233.644 441.952H133.213V447.82H233.644V441.952ZM136.041 444.102L74.8026 223.033L69.1472 224.599L130.385 445.669L136.041 444.102ZM71.9749 220.882H70.7501V226.75H71.9749V220.882ZM67.8159 223.816V444.886H73.6843V223.816H67.8159ZM474.84 444.886V447.82H477.775V444.886H474.84ZM264.181 444.886H261.247V447.82H264.181V444.886ZM264.181 8.87025V5.93602H261.247V8.87025H264.181ZM474.84 8.87025H477.775V5.93602H474.84V8.87025ZM474.84 75.0074V77.9417H477.775V75.0074H474.84ZM365.837 75.0074V72.0732H362.902V75.0074H365.837ZM365.837 170.539H362.902V173.473H365.837V170.539ZM471.166 170.539H474.1V167.605H471.166V170.539ZM471.166 236.676V239.61H474.1V236.676H471.166ZM365.837 236.676V233.742H362.902V236.676H365.837ZM365.837 378.749H362.902V381.683H365.837V378.749ZM474.84 378.749H477.775V375.814H474.84V378.749ZM474.84 441.952H264.181V447.82H474.84V441.952ZM267.116 444.886V8.87025H261.247V444.886H267.116ZM264.181 11.8045H474.84V5.93602H264.181V11.8045ZM471.906 8.87025V75.0074H477.775V8.87025H471.906ZM474.84 72.0732H365.837V77.9417H474.84V72.0732ZM362.902 75.0074V170.539H368.771V75.0074H362.902ZM365.837 173.473H471.166V167.605H365.837V173.473ZM468.232 170.539V236.676H474.1V170.539H468.232ZM471.166 233.742H365.837V239.61H471.166V233.742ZM362.902 236.676V378.749H368.771V236.676H362.902ZM365.837 381.683H474.84V375.814H365.837V381.683ZM471.906 378.749V444.886H477.775V378.749H471.906ZM604.737 444.886V447.82H607.671V444.886H604.737ZM503.082 444.886H500.147V447.82H503.082V444.886ZM503.082 8.87025V5.93602H500.147V8.87025H503.082ZM681.897 209.731L681.415 206.837L678.963 207.246V209.731H681.897ZM681.897 210.956H678.963V213.818L681.824 213.889L681.897 210.956ZM774.979 444.886V447.82H780.567L777.395 443.22L774.979 444.886ZM672.711 444.886L670.296 446.552L671.171 447.82H672.711V444.886ZM604.737 245.862V242.928H601.803V245.862H604.737ZM604.737 71.3331V68.3989H601.803V71.3331H604.737ZM604.737 183.399H601.803V186.333H604.737V183.399ZM604.737 441.952H503.082V447.82H604.737V441.952ZM506.016 444.886V8.87025H500.147V444.886H506.016ZM503.082 11.8045H605.349V5.93602H503.082V11.8045ZM605.349 11.8045C653.845 11.8045 691.684 14.3071 717.427 27.8483C730.17 34.5513 739.926 43.9577 746.538 57.2004C753.179 70.4997 756.735 87.845 756.735 110.526H762.604C762.604 87.2775 758.965 68.9516 751.789 54.5789C744.584 40.1496 733.901 29.8832 720.159 22.6546C692.931 8.33244 653.61 5.93602 605.349 5.93602V11.8045ZM756.735 110.526C756.735 137.406 751.144 159.21 739.099 175.368C727.097 191.468 708.406 202.338 681.415 206.837L682.38 212.626C710.502 207.939 730.698 196.457 743.804 178.876C756.866 161.353 762.604 138.147 762.604 110.526H756.735ZM678.963 209.731V210.956H684.831V209.731H678.963ZM681.824 213.889C706.067 214.495 724.612 219.347 737.142 231.157C749.625 242.922 756.735 262.171 756.735 293.015H762.604C762.604 261.396 755.323 240.229 741.167 226.886C727.059 213.588 706.718 208.641 681.97 208.023L681.824 213.889ZM756.735 293.015V384.26H762.604V293.015H756.735ZM756.735 384.26C756.735 401.568 759.796 428.038 772.563 446.552L777.395 443.22C765.667 426.215 762.604 401.245 762.604 384.26H756.735ZM774.979 441.952H672.711V447.82H774.979V441.952ZM675.127 443.22C663.421 426.246 660.948 401.318 660.948 384.26H655.08C655.08 401.495 657.506 428.007 670.296 446.552L675.127 443.22ZM660.948 384.26V291.79H655.08V384.26H660.948ZM660.948 291.79C660.948 259.849 641.547 242.928 621.271 242.928V248.796C637.739 248.796 655.08 262.493 655.08 291.79H660.948ZM621.271 242.928H604.737V248.796H621.271V242.928ZM601.803 245.862V444.886H607.671V245.862H601.803ZM601.803 71.3331V183.399H607.671V71.3331H601.803ZM604.737 186.333C627.807 186.333 642.351 182.541 650.839 172.511C659.198 162.632 660.948 147.469 660.948 127.06H655.08C655.08 147.68 653.156 160.687 646.359 168.72C639.69 176.602 627.596 180.465 604.737 180.465V186.333ZM660.948 127.06C660.948 116.909 660.529 108.15 659.117 100.751C657.701 93.3324 655.254 87.0993 651.07 82.1464C642.654 72.185 628.098 68.3989 604.737 68.3989V74.2674C627.917 74.2674 639.999 78.136 646.587 85.9337C649.904 89.8603 652.051 95.0328 653.352 101.852C654.658 108.691 655.08 117.002 655.08 127.06H660.948Z" fill="white"/>
</svg>
