<svg width="1920" height="736" viewBox="0 0 1920 736" fill="none" xmlns="http://www.w3.org/2000/svg">
<mask id="mask0_536_833" style="mask-type:alpha" maskUnits="userSpaceOnUse" x="-1569" y="0" width="4010" height="736">
<g style="mix-blend-mode:overlay" opacity="0.05">
<path d="M247.021 5.7417V347.33H453.972V275.702H335.225V207.499H441.698V138.439H335.225V77.9405H447.692V5.7417H247.021Z" fill="#FF0000"/>
<path d="M460.256 5.7417L531.904 347.33H646.94L720.871 5.7417H625.816L590.706 263.431L553.312 5.7417H460.256Z" fill="#FF0000"/>
<path d="M820.489 5.7417H732.57V347.045H820.489V5.7417Z" fill="#FF0000"/>
<path d="M1397.94 5.7417H1310.03V347.045H1397.94V5.7417Z" fill="#FF0000"/>
<path d="M860.732 5.7417V347.33H1058.55V275.132H949.507V5.7417H860.732Z" fill="#FF0000"/>
<path d="M1081.96 5.7417H1285.2V78.5112H1171.02V137.298H1277.49V207.499H1171.31V348.187H1081.96V5.7417Z" fill="#FF0000"/>
<path d="M1695.11 5.7417V347.33H1783.6V206.643H1838.12V347.33H1927.46V5.7417H1837.55V131.876H1782.74V5.7417H1695.11Z" fill="#FF0000"/>
<path d="M1426.79 246.593H1513C1513 246.593 1506.43 294.535 1542.11 294.535C1577.79 294.535 1583.22 238.032 1540.97 220.91C1498.72 203.787 1430.22 185.524 1430.22 114.752C1430.22 43.9799 1460.47 1.17428 1537.54 0.0328007C1614.62 -1.10868 1652.58 27.4283 1652.58 103.622H1570.94C1570.94 103.622 1572.94 56.8216 1542.68 59.9606C1512.14 63.0997 1493.59 115.608 1573.8 142.147C1652.87 168.116 1681.7 228.044 1652.87 300.243C1623.46 373.583 1501.29 353.036 1486.16 347.329C1466.75 339.624 1419.65 325.641 1426.79 246.593Z" fill="#FF0000"/>
<path d="M129.132 8.59541C119.427 6.59781 109.722 5.7417 99.7311 5.7417H-28.4355V347.045H112.005C112.005 347.045 161.959 347.33 182.511 313.086C203.064 278.556 208.202 254.585 208.202 170.686C208.202 93.3505 205.918 24.8615 129.132 8.59541ZM117.429 176.393C116.858 226.333 119.142 251.446 105.726 273.419C96.0203 289.115 60.3391 283.978 60.3391 283.978V69.9501C60.3391 69.9501 97.733 65.6695 106.867 81.6503C114.575 95.3481 118 126.453 117.429 176.393Z" fill="#FF0000"/>
</g>
<g style="mix-blend-mode:overlay" opacity="0.05">
<path d="M760.457 386.742V728.33H967.408V656.702H848.661V588.499H955.133V519.439H848.661V458.94H961.128V386.742H760.457Z" fill="#FF0000"/>
<path d="M973.691 386.742L1045.34 728.33H1160.38L1234.31 386.742H1139.25L1104.14 644.431L1066.75 386.742H973.691Z" fill="#FF0000"/>
<path d="M1333.92 386.742H1246.01V728.045H1333.92V386.742Z" fill="#FF0000"/>
<path d="M1911.38 388.742H1823.46V730.045H1911.38V388.742Z" fill="#FF0000"/>
<path d="M1374.17 386.742V728.33H1571.98V656.132H1462.94V386.742H1374.17Z" fill="#FF0000"/>
<path d="M1595.4 386.742H1798.64V459.511H1684.46V518.298H1790.93V588.499H1684.74V729.187H1595.4V386.742Z" fill="#FF0000"/>
<path d="M642.568 389.595C632.863 387.598 623.157 386.742 613.167 386.742H485V728.045H625.441C625.441 728.045 675.395 728.33 695.947 694.086C716.499 659.556 721.637 635.585 721.637 551.686C721.637 474.35 719.354 405.862 642.568 389.595ZM630.865 557.393C630.294 607.333 632.577 632.446 619.161 654.419C609.456 670.115 573.775 664.978 573.775 664.978V450.95C573.775 450.95 611.169 446.67 620.303 462.65C628.01 476.348 631.435 507.453 630.865 557.393Z" fill="#FF0000"/>
</g>
<g style="mix-blend-mode:overlay" opacity="0.05">
<path d="M154.545 386.742V728.33H243.034V587.643H297.555V728.33H386.9V386.742H296.984V512.876H242.178V386.742H154.545Z" fill="#FF0000"/>
<path d="M-113.774 627.593H-27.5689C-27.5689 627.593 -34.1342 675.535 1.54695 675.535C37.2281 675.535 42.6517 619.032 0.405258 601.91C-41.8412 584.787 -110.349 566.524 -110.349 495.752C-110.349 424.98 -80.0914 382.174 -3.02016 381.033C74.0511 379.891 112.016 408.428 112.016 484.622H30.3774C30.3774 484.622 32.3755 437.822 2.11789 440.961C-28.4252 444.1 -46.9793 496.608 33.2319 523.147C112.301 549.116 141.132 609.044 112.301 681.243C82.8999 754.583 -39.2722 734.036 -54.401 728.329C-73.8116 720.624 -120.911 706.641 -113.774 627.593Z" fill="#FF0000"/>
</g>
</mask>
<g mask="url(#mask0_536_833)">
<rect y="113" width="1927" height="539" fill="#D9D9D9"/>
</g>
</svg>
