<svg width="36" height="409" viewBox="0 0 36 409" fill="none" xmlns="http://www.w3.org/2000/svg">
<path d="M18.1666 155.874L15.6651 153.596C6.78018 145.54 0.914429 140.209 0.914429 133.705C0.914429 128.374 5.08946 124.216 10.4031 124.216C13.405 124.216 16.2861 125.613 18.1666 127.804C20.0471 125.613 22.9282 124.216 25.9301 124.216C31.2438 124.216 35.4188 128.374 35.4188 133.705C35.4188 140.209 29.5531 145.54 20.6682 153.596L18.1666 155.874Z" fill="#FF0000"/>
<path d="M18.3696 245.996C13.194 254.622 4.56787 258.073 4.56787 266.699C4.56787 270.149 8.01831 273.6 11.4688 273.6C13.194 273.6 14.9192 273.6 16.6444 271.875C16.6444 271.875 17.1965 275.325 13.194 280.501H23.5453C20.0949 275.325 20.0949 271.875 20.0949 271.875C21.8201 273.6 23.5453 273.6 25.2705 273.6C28.721 273.6 32.1714 270.149 32.1714 266.699C32.1714 258.073 23.5453 254.622 18.3696 245.996Z" fill="#FF0000"/>
<path d="M3.8676 387.636L16.1598 371.247C16.4009 370.926 16.7134 370.665 17.0728 370.485C17.4321 370.306 17.8283 370.212 18.2301 370.212C18.6318 370.212 19.028 370.306 19.3874 370.485C19.7467 370.665 20.0593 370.926 20.3003 371.247L32.5925 387.636C32.9285 388.084 33.1101 388.629 33.1101 389.189C33.1101 389.749 32.9285 390.293 32.5925 390.741L20.3003 407.13C20.0593 407.452 19.7467 407.712 19.3874 407.892C19.028 408.072 18.6318 408.165 18.2301 408.165C17.8283 408.165 17.4321 408.072 17.0728 407.892C16.7134 407.712 16.4009 407.452 16.1598 407.13L3.8676 390.741C3.53165 390.293 3.35004 389.749 3.35004 389.189C3.35004 388.629 3.53165 388.084 3.8676 387.636Z" fill="#FF0000"/>
<path d="M17.6593 0C21.6273 0 25.0777 3.45044 25.0777 7.24593C25.0563 8.58387 24.6851 9.89291 24.0011 11.043C23.3171 12.1931 22.3441 13.1442 21.1787 13.8018C22.9039 12.9392 25.4227 12.9392 25.4227 12.9392C29.7358 12.9392 33.1862 16.0446 33.1862 20.3576C33.1862 24.6707 29.7358 27.6035 25.4227 27.6035C25.4227 27.6035 22.8349 27.6035 19.3845 25.8783C19.3845 25.8783 18.8669 29.3288 22.8349 34.5044H12.4836C16.4516 29.3288 15.934 25.8783 15.934 25.8783C12.4836 27.6035 9.89576 27.6035 9.89576 27.6035C5.58271 27.6035 2.13226 24.6707 2.13226 20.3576C2.13226 16.0446 5.58271 12.9392 9.89576 12.9392C9.89576 12.9392 12.4146 12.9392 14.1398 13.8018C13.6222 13.5085 10.3961 11.6797 10.2408 7.24593C10.2408 3.45044 13.6912 0 17.6593 0Z" fill="#FF0000"/>
</svg>
