<svg width="1505" height="34" viewBox="0 0 1505 34" fill="none" xmlns="http://www.w3.org/2000/svg">
<line x1="-1.24139e-06" y1="15.5" x2="610" y2="15.4995" stroke="#FF0000" stroke-width="3" stroke-dasharray="10 25"/>
<line x1="895" y1="15.5" x2="1505" y2="15.4999" stroke="#FF0000" stroke-width="3" stroke-dasharray="10 25"/>
<path d="M829.708 0C833.618 0 837.018 3.39995 837.018 7.1399C836.997 8.45826 836.631 9.74815 835.957 10.8814C835.283 12.0147 834.325 12.9518 833.176 13.5998C834.876 12.7498 837.358 12.7498 837.358 12.7498C841.608 12.7498 845.008 15.8098 845.008 20.0597C845.008 24.3097 841.608 27.1996 837.358 27.1996C837.358 27.1996 834.808 27.1996 831.408 25.4996C831.408 25.4996 830.898 28.8996 834.808 33.9995H824.608C828.518 28.8996 828.008 25.4996 828.008 25.4996C824.608 27.1996 822.058 27.1996 822.058 27.1996C817.809 27.1996 814.409 24.3097 814.409 20.0597C814.409 15.8098 817.809 12.7498 822.058 12.7498C822.058 12.7498 824.54 12.7498 826.24 13.5998C825.73 13.3108 822.551 11.5088 822.398 7.1399C822.398 3.39995 825.798 0 829.708 0Z" fill="#FF0000"/>
<path d="M767.111 15.6088L778.123 0.927302C778.339 0.639384 778.619 0.405696 778.941 0.244745C779.262 0.0837935 779.617 0 779.977 0C780.337 0 780.692 0.0837935 781.014 0.244745C781.336 0.405696 781.616 0.639384 781.832 0.927302L792.844 15.6088C793.145 16.0101 793.307 16.4982 793.307 16.9998C793.307 17.5014 793.145 17.9894 792.844 18.3907L781.832 33.0722C781.616 33.3601 781.336 33.5938 781.014 33.7548C780.692 33.9157 780.337 33.9995 779.977 33.9995C779.617 33.9995 779.262 33.9157 778.941 33.7548C778.619 33.5938 778.339 33.3601 778.123 33.0722L767.111 18.3907C766.81 17.9894 766.647 17.5014 766.647 16.9998C766.647 16.4982 766.81 16.0101 767.111 15.6088Z" fill="#FF0000"/>
<path d="M731.676 0C726.577 8.49988 718.077 11.8998 718.077 20.3997C718.077 23.7997 721.477 27.1996 724.877 27.1996C726.577 27.1996 728.276 27.1996 729.976 25.4996C729.976 25.4996 730.52 28.8996 726.577 33.9995H736.776C733.376 28.8996 733.376 25.4996 733.376 25.4996C735.076 27.1996 736.776 27.1996 738.476 27.1996C741.876 27.1996 745.276 23.7997 745.276 20.3997C745.276 11.8998 736.776 8.49988 731.676 0Z" fill="#FF0000"/>
<path d="M678.411 33.9995L675.711 31.5538C666.122 22.901 659.792 17.1758 659.792 10.1906C659.792 4.46533 664.297 0 670.032 0C673.272 0 676.381 1.5008 678.411 3.8539C680.44 1.5008 683.549 0 686.789 0C692.524 0 697.029 4.46533 697.029 10.1906C697.029 17.1758 690.699 22.901 681.11 31.5538L678.411 33.9995Z" fill="#FF0000"/>
</svg>
