<svg width="24" height="17" viewBox="0 0 24 17" fill="none" xmlns="http://www.w3.org/2000/svg">
<path d="M20.0988 1.4128C18.6632 0.754226 17.1089 0.276227 15.4898 4.88603e-05C15.4756 -0.000397914 15.4615 0.00222374 15.4484 0.00772953C15.4353 0.0132353 15.4237 0.0214915 15.4142 0.0319157C15.2199 0.382449 14.9932 0.839204 14.8421 1.18974C13.1248 0.934804 11.3784 0.934804 9.66104 1.18974C9.50992 0.828582 9.28325 0.382449 9.07817 0.0319157C9.06737 0.0106713 9.03499 4.88603e-05 9.00261 4.88603e-05C7.38351 0.276227 5.83998 0.754226 4.39359 1.4128C4.3828 1.4128 4.372 1.42343 4.36121 1.43405C1.42526 5.75729 0.61571 9.96369 1.01509 14.1276C1.01509 14.1488 1.02588 14.1701 1.04747 14.1807C2.99038 15.5828 4.85773 16.4326 6.7035 16.9956C6.73588 17.0062 6.76826 16.9956 6.77905 16.9744C7.21081 16.3901 7.59939 15.774 7.93401 15.1261C7.95559 15.0836 7.93401 15.0411 7.89083 15.0305C7.27558 14.7968 6.6927 14.5206 6.12062 14.202C6.07745 14.1807 6.07745 14.117 6.10983 14.0851C6.22856 14.0001 6.3473 13.9045 6.46603 13.8196C6.48762 13.7983 6.52 13.7983 6.54159 13.8089C10.2547 15.4766 14.2593 15.4766 17.9292 13.8089C17.9508 13.7983 17.9832 13.7983 18.0048 13.8196C18.1235 13.9152 18.2422 14.0001 18.361 14.0957C18.4041 14.1276 18.4041 14.1913 18.3502 14.2126C17.7889 14.5419 17.1952 14.8074 16.58 15.0411C16.5368 15.0517 16.526 15.1048 16.5368 15.1367C16.8822 15.7847 17.2708 16.4008 17.6917 16.985C17.7241 16.9956 17.7565 17.0062 17.7889 16.9956C19.6454 16.4326 21.5128 15.5828 23.4557 14.1807C23.4773 14.1701 23.4881 14.1488 23.4881 14.1276C23.963 9.31573 22.7001 5.1412 20.142 1.43405C20.1312 1.42343 20.1204 1.4128 20.0988 1.4128ZM8.49529 11.5889C7.38351 11.5889 6.45524 10.5798 6.45524 9.33698C6.45524 8.09418 7.36193 7.08507 8.49529 7.08507C9.63945 7.08507 10.5461 8.1048 10.5353 9.33698C10.5353 10.5798 9.62866 11.5889 8.49529 11.5889ZM16.0187 11.5889C14.9069 11.5889 13.9786 10.5798 13.9786 9.33698C13.9786 8.09418 14.8853 7.08507 16.0187 7.08507C17.1628 7.08507 18.0695 8.1048 18.0587 9.33698C18.0587 10.5798 17.1628 11.5889 16.0187 11.5889Z" fill="#FFFFF9"/>
</svg>
