<svg width="257" height="340" viewBox="0 0 257 340" fill="none" xmlns="http://www.w3.org/2000/svg">
<rect x="3.00222" y="3.00222" width="250.996" height="333.996" rx="30.0223" fill="url(#paint0_linear_536_1151)" stroke="white" stroke-width="6.00445"/>
<g opacity="0.05">
<mask id="path-2-inside-1_536_1151" fill="white">
<path fill-rule="evenodd" clip-rule="evenodd" d="M223.975 0C225.916 0 227.818 0.167406 229.667 0.488566L41.6937 340H33.0245C32.6315 340 32.2402 339.993 31.8506 339.98L220.083 0H223.975ZM61.5204 340H51.6669L238.146 3.18635C240.773 4.43586 243.208 6.0219 245.396 7.88871L61.5204 340ZM71.4936 340H81.347L255.933 24.6672C255.007 21.1164 253.505 17.7982 251.533 14.8186L71.4936 340ZM101.174 340H91.3202L257 40.754V58.5524L101.174 340ZM111.148 340H121.001L257 94.3634V76.5658L111.148 340ZM140.829 340H130.975L257 112.377V130.175L140.829 340ZM150.802 340H160.655L257 165.985V148.188L150.802 340ZM180.482 340H170.629L257 183.999V201.796L180.482 340ZM190.455 340H200.311L257 237.61V219.809L190.455 340ZM220.137 340H210.284L257 255.623V273.42L220.137 340ZM230.463 339.363C235.266 338.406 239.694 336.408 243.5 333.613L256.913 309.387C256.971 308.591 257 307.786 257 306.976V291.433L230.463 339.363ZM210.11 0H200.255L14.9799 334.639C17.3771 336.206 19.9904 337.469 22.7655 338.376L210.11 0ZM180.429 0H190.282L8.23914 328.801C6.08709 326.358 4.29029 323.596 2.92957 320.593L180.429 0ZM170.455 0H160.601L0 290.073V306.976C0 307.268 0.00380751 307.56 0.0113757 307.851L170.455 0ZM140.774 0H150.628L0 272.059V254.262L140.774 0ZM130.801 0H120.948L0 218.452V236.249L130.801 0ZM101.12 0H110.974L0 200.439V182.64L101.12 0ZM91.147 0H81.2932L0 146.829V164.627L91.147 0ZM61.4657 0H71.32L0 128.816V111.018L61.4657 0ZM51.4925 0H41.6392L0 75.2075V93.0043L51.4925 0ZM20.4359 2.48406C23.915 1.04847 27.6929 0.190036 31.6504 0.0280661L0 57.1942V39.3949L20.4359 2.48406Z"/>
</mask>
<path d="M229.667 0.488566L234.92 3.39696L239.006 -3.98351L230.694 -5.4273L229.667 0.488566ZM41.6937 340V346.004H45.2326L46.9467 342.908L41.6937 340ZM31.8506 339.98L26.5975 337.071L21.8542 345.638L31.641 345.98L31.8506 339.98ZM220.083 0V-6.00445H216.544L214.83 -2.9084L220.083 0ZM51.6669 340L46.4138 337.092L41.4792 346.004H51.6669V340ZM61.5204 340V346.004H65.0593L66.7735 342.908L61.5204 340ZM238.146 3.18635L240.726 -2.23572L235.628 -4.66123L232.893 0.277956L238.146 3.18635ZM245.396 7.88871L250.649 10.7971L253.026 6.50469L249.293 3.32051L245.396 7.88871ZM81.347 340V346.004H84.8859L86.6 342.908L81.347 340ZM71.4936 340L66.2406 337.092L61.3059 346.004H71.4936V340ZM255.933 24.6672L261.186 27.5756L262.349 25.4752L261.743 23.152L255.933 24.6672ZM251.533 14.8186L256.54 11.5042L251.075 3.24927L246.28 11.9102L251.533 14.8186ZM91.3202 340L86.0671 337.092L81.1325 346.004H91.3202V340ZM101.174 340V346.004H104.713L106.427 342.908L101.174 340ZM257 40.754H263.004V17.5126L251.747 37.8456L257 40.754ZM257 58.5524L262.253 61.4608L263.004 60.1037V58.5524H257ZM121.001 340V346.004H124.54L126.254 342.908L121.001 340ZM111.148 340L105.895 337.092L100.96 346.004H111.148V340ZM257 94.3634L262.253 97.2718L263.004 95.9146V94.3634H257ZM257 76.5658H263.004V53.3244L251.747 73.6574L257 76.5658ZM130.975 340L125.722 337.092L120.787 346.004H130.975V340ZM140.829 340V346.004H144.368L146.082 342.908L140.829 340ZM257 112.377H263.004V89.1354L251.747 109.468L257 112.377ZM257 130.175L262.253 133.084L263.004 131.726V130.175H257ZM160.655 340V346.004H164.194L165.909 342.908L160.655 340ZM150.802 340L145.549 337.092L140.614 346.004H150.802V340ZM257 165.985L262.253 168.894L263.004 167.537V165.985H257ZM257 148.188H263.004V124.947L251.747 145.28L257 148.188ZM170.629 340L165.376 337.092L160.441 346.004H170.629V340ZM180.482 340V346.004H184.021L185.735 342.908L180.482 340ZM257 183.999H263.004V160.757L251.747 181.09L257 183.999ZM257 201.796L262.253 204.704L263.004 203.347V201.796H257ZM200.311 340V346.004H203.85L205.564 342.908L200.311 340ZM190.455 340L185.202 337.092L180.268 346.004H190.455V340ZM257 237.61L262.253 240.518L263.004 239.161V237.61H257ZM257 219.809H263.004V196.568L251.747 216.901L257 219.809ZM210.284 340L205.031 337.092L200.096 346.004H210.284V340ZM220.137 340V346.004H223.676L225.39 342.908L220.137 340ZM257 255.623H263.004V232.382L251.747 252.715L257 255.623ZM257 273.42L262.253 276.328L263.004 274.971V273.42H257ZM243.5 333.613L247.054 338.453L248.116 337.673L248.753 336.521L243.5 333.613ZM230.463 339.363L225.21 336.455L218.939 347.781L231.636 345.252L230.463 339.363ZM256.913 309.387L262.166 312.295L262.807 311.138L262.902 309.819L256.913 309.387ZM257 291.433H263.004V268.192L251.747 288.525L257 291.433ZM200.255 0V-6.00445H196.716L195.002 -2.9084L200.255 0ZM210.11 0L215.363 2.9084L220.297 -6.00445H210.11V0ZM14.9799 334.639L9.72685 331.73L7.0241 336.612L11.6948 339.665L14.9799 334.639ZM22.7655 338.376L20.9018 344.083L25.6163 345.623L28.0185 341.284L22.7655 338.376ZM190.282 0L195.535 2.9084L200.47 -6.00445H190.282V0ZM180.429 0V-6.00445H176.89L175.175 -2.9084L180.429 0ZM8.23914 328.801L3.73431 332.77L9.36619 339.161L13.4922 331.709L8.23914 328.801ZM2.92957 320.593L-2.32349 317.685L-3.78474 320.324L-2.53942 323.072L2.92957 320.593ZM160.601 0V-6.00445H157.062L155.348 -2.9084L160.601 0ZM170.455 0L175.708 2.9084L180.643 -6.00445H170.455V0ZM0 290.073L-5.25306 287.164L-6.00445 288.521V290.073H0ZM0.0113757 307.851L-5.99104 308.007L-5.41742 330.053L5.26444 310.759L0.0113757 307.851ZM150.628 0L155.881 2.9084L160.815 -6.00445H150.628V0ZM140.774 0V-6.00445H137.235L135.521 -2.9084L140.774 0ZM0 272.059H-6.00445V295.301L5.25306 274.968L0 272.059ZM0 254.262L-5.25306 251.354L-6.00445 252.711V254.262H0ZM120.948 0V-6.00445H117.409L115.695 -2.9084L120.948 0ZM130.801 0L136.054 2.9084L140.989 -6.00445H130.801V0ZM0 218.452L-5.25306 215.544L-6.00445 216.901V218.452H0ZM0 236.249H-6.00445V259.49L5.25306 239.157L0 236.249ZM110.974 0L116.227 2.9084L121.162 -6.00445H110.974V0ZM101.12 0V-6.00445H97.5813L95.8672 -2.9084L101.12 0ZM0 200.439H-6.00445V223.68L5.25306 203.347L0 200.439ZM0 182.64L-5.25306 179.732L-6.00445 181.089V182.64H0ZM81.2932 0V-6.00445H77.7543L76.0402 -2.9084L81.2932 0ZM91.147 0L96.4001 2.9084L101.335 -6.00445H91.147V0ZM0 146.829L-5.25306 143.921L-6.00445 145.278V146.829H0ZM0 164.627H-6.00445V187.868L5.25306 167.535L0 164.627ZM71.32 0L76.5731 2.9084L81.5077 -6.00445H71.32V0ZM61.4657 0V-6.00445H57.9268L56.2127 -2.9084L61.4657 0ZM0 128.816H-6.00445V152.057L5.25306 131.725L0 128.816ZM0 111.018L-5.25306 108.109L-6.00445 109.466V111.018H0ZM41.6392 0V-6.00445H38.1003L36.3861 -2.9084L41.6392 0ZM51.4925 0L56.7456 2.9084L61.6802 -6.00445H51.4925V0ZM0 75.2075L-5.25306 72.2991L-6.00445 73.6563V75.2075H0ZM0 93.0043H-6.00445V116.246L5.25306 95.9127L0 93.0043ZM31.6504 0.0280661L36.9035 2.93646L42.0772 -6.40815L31.4049 -5.97136L31.6504 0.0280661ZM20.4359 2.48406L18.1456 -3.06641L16.2015 -2.26421L15.1829 -0.424336L20.4359 2.48406ZM0 57.1942H-6.00445V80.4355L5.25306 60.1026L0 57.1942ZM0 39.3949L-5.25306 36.4865L-6.00445 37.8436V39.3949H0ZM230.694 -5.4273C228.508 -5.80715 226.262 -6.00445 223.975 -6.00445V6.00445C225.57 6.00445 227.128 6.14196 228.639 6.40443L230.694 -5.4273ZM46.9467 342.908L234.92 3.39696L224.414 -2.41983L36.4406 337.092L46.9467 342.908ZM33.0245 346.004H41.6937V333.996H33.0245V346.004ZM31.641 345.98C32.1004 345.996 32.5616 346.004 33.0245 346.004V333.996C32.7015 333.996 32.3801 333.99 32.0602 333.979L31.641 345.98ZM214.83 -2.9084L26.5975 337.071L37.1036 342.888L225.336 2.9084L214.83 -2.9084ZM223.975 -6.00445H220.083V6.00445H223.975V-6.00445ZM51.6669 346.004H61.5204V333.996H51.6669V346.004ZM232.893 0.277956L46.4138 337.092L56.9199 342.908L243.399 6.09475L232.893 0.277956ZM249.293 3.32051C246.709 1.11637 243.832 -0.758007 240.726 -2.23572L235.567 8.60842C237.713 9.62973 239.706 10.9274 241.5 12.4569L249.293 3.32051ZM66.7735 342.908L250.649 10.7971L240.143 4.98032L56.2673 337.092L66.7735 342.908ZM81.347 333.996H71.4936V346.004H81.347V333.996ZM250.68 21.7588L76.0939 337.092L86.6 342.908L261.186 27.5756L250.68 21.7588ZM246.526 18.1331C248.14 20.5716 249.367 23.2833 250.123 26.1824L261.743 23.152C260.648 18.9494 258.87 15.0249 256.54 11.5042L246.526 18.1331ZM76.7467 342.908L256.786 17.727L246.28 11.9102L66.2406 337.092L76.7467 342.908ZM91.3202 346.004H101.174V333.996H91.3202V346.004ZM251.747 37.8456L86.0671 337.092L96.5732 342.908L262.253 43.6624L251.747 37.8456ZM263.004 58.5524V40.754H250.996V58.5524H263.004ZM106.427 342.908L262.253 61.4608L251.747 55.644L95.9213 337.092L106.427 342.908ZM121.001 333.996H111.148V346.004H121.001V333.996ZM251.747 91.455L115.748 337.092L126.254 342.908L262.253 97.2718L251.747 91.455ZM250.996 76.5658V94.3634H263.004V76.5658H250.996ZM116.401 342.908L262.253 79.4741L251.747 73.6574L105.895 337.092L116.401 342.908ZM130.975 346.004H140.829V333.996H130.975V346.004ZM251.747 109.468L125.722 337.092L136.228 342.908L262.253 115.285L251.747 109.468ZM263.004 130.175V112.377H250.996V130.175H263.004ZM146.082 342.908L262.253 133.084L251.747 127.267L135.576 337.092L146.082 342.908ZM160.655 333.996H150.802V346.004H160.655V333.996ZM251.747 163.077L155.402 337.092L165.909 342.908L262.253 168.894L251.747 163.077ZM250.996 148.188V165.985H263.004V148.188H250.996ZM156.055 342.908L262.253 151.097L251.747 145.28L145.549 337.092L156.055 342.908ZM170.629 346.004H180.482V333.996H170.629V346.004ZM251.747 181.09L165.376 337.092L175.882 342.908L262.253 186.907L251.747 181.09ZM263.004 201.796V183.999H250.996V201.796H263.004ZM185.735 342.908L262.253 204.704L251.747 198.887L175.229 337.092L185.735 342.908ZM200.311 333.996H190.455V346.004H200.311V333.996ZM251.747 234.701L195.058 337.092L205.564 342.908L262.253 240.518L251.747 234.701ZM250.996 219.809V237.61H263.004V219.809H250.996ZM195.708 342.908L262.253 222.718L251.747 216.901L185.202 337.092L195.708 342.908ZM210.284 346.004H220.137V333.996H210.284V346.004ZM251.747 252.715L205.031 337.092L215.537 342.908L262.253 258.531L251.747 252.715ZM263.004 273.42V255.623H250.996V273.42H263.004ZM225.39 342.908L262.253 276.328L251.747 270.512L214.884 337.092L225.39 342.908ZM239.947 328.773C236.83 331.061 233.212 332.693 229.29 333.474L231.636 345.252C237.321 344.119 242.558 341.754 247.054 338.453L239.947 328.773ZM251.66 306.478L238.247 330.704L248.753 336.521L262.166 312.295L251.66 306.478ZM250.996 306.976C250.996 307.642 250.972 308.302 250.924 308.955L262.902 309.819C262.97 308.879 263.004 307.931 263.004 306.976H250.996ZM250.996 291.433V306.976H263.004V291.433H250.996ZM235.716 342.271L262.253 294.342L251.747 288.525L225.21 336.455L235.716 342.271ZM200.255 6.00445H210.11V-6.00445H200.255V6.00445ZM20.233 337.547L205.508 2.9084L195.002 -2.9084L9.72685 331.73L20.233 337.547ZM24.6291 332.668C22.3632 331.928 20.2269 330.895 18.265 329.613L11.6948 339.665C14.5273 341.516 17.6177 343.011 20.9018 344.083L24.6291 332.668ZM204.857 -2.9084L17.5124 335.467L28.0185 341.284L215.363 2.9084L204.857 -2.9084ZM190.282 -6.00445H180.429V6.00445H190.282V-6.00445ZM13.4922 331.709L195.535 2.9084L185.029 -2.9084L2.98608 325.892L13.4922 331.709ZM-2.53942 323.072C-0.930009 326.623 1.19356 329.887 3.73431 332.77L12.744 324.831C10.9806 322.83 9.51058 320.569 8.39856 318.115L-2.53942 323.072ZM175.175 -2.9084L-2.32349 317.685L8.18263 323.502L185.682 2.9084L175.175 -2.9084ZM160.601 6.00445H170.455V-6.00445H160.601V6.00445ZM5.25306 292.981L165.854 2.9084L155.348 -2.9084L-5.25306 287.164L5.25306 292.981ZM6.00445 306.976V290.073H-6.00445V306.976H6.00445ZM6.01379 307.695C6.00758 307.456 6.00445 307.216 6.00445 306.976H-6.00445C-6.00445 307.32 -5.99996 307.664 -5.99104 308.007L6.01379 307.695ZM165.202 -2.9084L-5.24168 304.943L5.26444 310.759L175.708 2.9084L165.202 -2.9084ZM150.628 -6.00445H140.774V6.00445H150.628V-6.00445ZM5.25306 274.968L155.881 2.9084L145.375 -2.9084L-5.25306 269.151L5.25306 274.968ZM-6.00445 254.262V272.059H6.00445V254.262H-6.00445ZM135.521 -2.9084L-5.25306 251.354L5.25306 257.171L146.027 2.9084L135.521 -2.9084ZM120.948 6.00445H130.801V-6.00445H120.948V6.00445ZM5.25306 221.361L126.201 2.9084L115.695 -2.9084L-5.25306 215.544L5.25306 221.361ZM6.00445 236.249V218.452H-6.00445V236.249H6.00445ZM125.548 -2.9084L-5.25306 233.341L5.25306 239.157L136.054 2.9084L125.548 -2.9084ZM110.974 -6.00445H101.12V6.00445H110.974V-6.00445ZM5.25306 203.347L116.227 2.9084L105.721 -2.9084L-5.25306 197.53L5.25306 203.347ZM-6.00445 182.64V200.439H6.00445V182.64H-6.00445ZM95.8672 -2.9084L-5.25306 179.732L5.25306 185.549L106.373 2.9084L95.8672 -2.9084ZM81.2932 6.00445H91.147V-6.00445H81.2932V6.00445ZM5.25306 149.738L86.5463 2.9084L76.0402 -2.9084L-5.25306 143.921L5.25306 149.738ZM6.00445 164.627V146.829H-6.00445V164.627H6.00445ZM85.8939 -2.9084L-5.25306 161.719L5.25306 167.535L96.4001 2.9084L85.8939 -2.9084ZM71.32 -6.00445H61.4657V6.00445H71.32V-6.00445ZM5.25306 131.725L76.5731 2.9084L66.0669 -2.9084L-5.25306 125.908L5.25306 131.725ZM-6.00445 111.018V128.816H6.00445V111.018H-6.00445ZM56.2127 -2.9084L-5.25306 108.109L5.25306 113.926L66.7188 2.9084L56.2127 -2.9084ZM41.6392 6.00445H51.4925V-6.00445H41.6392V6.00445ZM5.25306 78.1159L46.8923 2.9084L36.3861 -2.9084L-5.25306 72.2991L5.25306 78.1159ZM6.00445 93.0043V75.2075H-6.00445V93.0043H6.00445ZM46.2395 -2.9084L-5.25306 90.0959L5.25306 95.9127L56.7456 2.9084L46.2395 -2.9084ZM31.4049 -5.97136C26.733 -5.78016 22.2638 -4.76575 18.1456 -3.06641L22.7263 8.03453C25.5662 6.86268 28.6527 6.16023 31.896 6.02749L31.4049 -5.97136ZM5.25306 60.1026L36.9035 2.93646L26.3974 -2.88033L-5.25306 54.2858L5.25306 60.1026ZM-6.00445 39.3949V57.1942H6.00445V39.3949H-6.00445ZM15.1829 -0.424336L-5.25306 36.4865L5.25306 42.3033L25.689 5.39246L15.1829 -0.424336Z" fill="white" mask="url(#path-2-inside-1_536_1151)"/>
</g>
<path opacity="0.9" d="M180.52 102.711C178.352 98.7576 174.302 102.377 174.302 102.377C174.302 102.377 174.265 91.701 164.155 92.4362C154.044 93.1715 150.114 104.573 150.114 104.573C149.33 100.352 148.952 99.1873 144.385 90.8511C139.819 82.515 140.262 75 140.262 75C133.97 85.16 133.998 100.094 133.998 100.094C133.998 100.094 132.457 97.8313 129.754 94.9476C127.061 92.0734 126.36 88.292 126.36 88.292L125.068 94.3651C125.068 94.3651 125.289 105.786 122.162 105.117C119.026 104.449 118.804 94.0977 118.804 94.0977C112.402 100.61 114.422 108.173 114.422 108.173H112.623C107.965 123.699 92.4759 129.763 92.4759 129.763C89.2564 126.258 82.6789 121.369 82.6789 121.369L82.7343 123.031L88.7767 128.903L83.0479 124.597L83.4723 128.111L76 128.636C85.5479 130.641 83.3893 134.069 83.3893 134.069L90.4926 132.322L82.4852 135.989L81.1937 137.555L92.3468 134.069L116.277 153.196C116.277 153.196 114.588 163.432 119.395 165.113C125.068 167.099 128.97 158.486 128.97 158.486C137.679 159.765 146.24 158.4 146.24 158.4L145.594 160.119C144.164 163.871 145.935 165.351 147.107 165.819C148.288 166.287 149.182 167.156 149.182 167.156L147.919 164.253C147.919 164.253 146.655 162.974 148.26 160.529C149.865 158.085 150.225 155.268 150.225 155.268L153.094 152.709L153.767 158.839C149.92 161.895 151.378 165.294 152.051 167.127C152.725 168.961 153.795 173 153.795 173L154.016 167.853C152.808 164.683 154.441 160.93 155.446 161.169C156.461 161.398 155.612 167.042 155.612 167.042C160.271 160.004 155.077 155.296 155.077 155.296L154.8 152.327C154.431 150.293 155.76 149.328 155.76 149.328C158.121 147.38 157.854 146.693 157.854 146.693C161.821 143.742 160.815 141.727 160.815 141.727C161.193 140.018 161.673 139.168 164.819 137.621C167.965 136.075 170.059 132.35 169.016 130.221C167.965 128.092 165.529 128.474 165.529 128.474C165.87 124.014 161.894 120.72 161.894 120.72C161.442 123.9 160.216 130.899 160.216 130.899L159.754 131.233C161.507 126.64 158.398 125.055 157.882 124.826L157.679 125.007L153.601 123.804C153.601 123.804 154.109 126.115 149.201 126.382C144.293 126.65 134.219 126.077 134.312 117.951L144.293 117.817L145.437 118.524C143.629 121.589 146.673 123.747 146.673 123.747C150.252 125.857 152.771 123.031 152.771 123.031L153.38 123.403L153.49 123.155L157.937 124.616C160.787 120.052 154.182 116.624 154.182 116.624C154.182 116.624 154.182 116.576 154.182 116.49L154.044 116.748L148.684 114.781L148.85 114.313L154.173 116.261C154.053 113.835 153.786 99.7411 163.407 95.9216C172.992 92.1211 173.444 102.701 173.444 102.701C164.007 102.548 170.409 108.669 171.83 109.758C173.251 110.846 176.811 114.141 176.811 114.141C176.811 114.141 182.688 106.664 180.52 102.711ZM125.732 135.368L125.225 135.272C125.834 128.817 129.616 126.812 129.616 126.812L129.754 127.309C126.101 129.753 125.732 135.368 125.732 135.368ZM155.492 134.68L155.511 130.202L157.845 132.627L159.561 131.128L159.893 131.52L141.396 147.667L140.917 147.314L155.502 134.69L155.492 134.68Z" fill="white"/>
<path opacity="0.9" d="M72.2 200.44V217.96C72.2 225.92 68 229.68 59.2 229.68C50.4 229.68 46.16 225.92 46.16 217.96V200.44H54.96V216C54.96 218.88 54.92 222.56 59.24 222.56C63.4 222.56 63.4 218.88 63.4 216V200.44H72.2ZM76.6716 229V200.44H85.6716L93.9916 215.72H94.0716V200.44H102.392V229H93.8316L85.0716 213.4H84.9916V229H76.6716ZM106.983 229V200.44H115.783V221.68H128.423V229H106.983ZM140.138 214.72C140.138 221.08 143.578 222.56 145.818 222.56C148.058 222.56 151.498 221.08 151.498 214.72C151.498 208.36 148.058 206.88 145.818 206.88C143.578 206.88 140.138 208.36 140.138 214.72ZM131.338 214.72C131.338 206 137.138 199.76 145.818 199.76C154.498 199.76 160.298 206 160.298 214.72C160.298 223.44 154.498 229.68 145.818 229.68C137.138 229.68 131.338 223.44 131.338 214.72ZM190.574 211.08H182.014C181.814 210.04 181.054 206.88 177.414 206.88C173.294 206.88 171.974 210.88 171.974 214.72C171.974 218.56 173.294 222.56 177.414 222.56C180.374 222.56 181.494 220.52 182.054 217.8H190.694C190.694 223.56 186.014 229.68 177.654 229.68C168.414 229.68 163.174 223.16 163.174 214.72C163.174 205.76 168.854 199.76 177.654 199.76C185.534 199.8 189.814 203.88 190.574 211.08ZM194.606 229V200.44H203.406V210.28H203.486L211.326 200.44H222.166L211.806 211.6L223.846 229H212.886L205.846 217.88L203.406 220.56V229H194.606Z" fill="white"/>
<path opacity="0.9" d="M102.84 251.08H94.28C94.08 250.04 93.32 246.88 89.68 246.88C85.56 246.88 84.24 250.88 84.24 254.72C84.24 258.56 85.56 262.56 89.68 262.56C92.64 262.56 93.76 260.52 94.32 257.8H102.96C102.96 263.56 98.28 269.68 89.92 269.68C80.68 269.68 75.44 263.16 75.44 254.72C75.44 245.76 81.12 239.76 89.92 239.76C97.8 239.8 102.08 243.88 102.84 251.08ZM104.032 269L114.552 240.44H123.152L133.552 269H124.432L123.232 264.92H114.152L112.872 269H104.032ZM116.072 258.8H121.472L118.912 250H118.832L116.072 258.8ZM144.299 247.24V252.92H148.899C150.539 252.92 152.779 252.64 152.779 250.08C152.779 248.28 151.779 247.24 148.419 247.24H144.299ZM135.499 269V240.44H152.259C157.219 240.44 161.579 243.2 161.579 248.6C161.579 251.56 160.219 254.68 157.299 255.76C159.699 256.68 161.179 259.32 161.499 262.88C161.619 264.24 161.619 267.76 162.459 269H153.659C153.219 267.56 153.059 266.08 152.939 264.6C152.739 261.88 152.459 259.04 148.979 259.04H144.299V269H135.499ZM173.947 247.76V261.68H177.387C182.827 261.68 183.667 257.24 183.667 254.56C183.667 252.76 183.147 247.76 176.747 247.76H173.947ZM165.147 269V240.44H179.587C189.067 240.44 192.467 247.48 192.467 254.68C192.467 263.48 187.827 269 177.867 269H165.147Z" fill="white"/>
<defs>
<linearGradient id="paint0_linear_536_1151" x1="128.5" y1="0" x2="128.5" y2="340" gradientUnits="userSpaceOnUse">
<stop stop-color="#AF0000"/>
<stop offset="0.958333" stop-color="#050000"/>
</linearGradient>
</defs>
</svg>
