<svg width="216" height="13" viewBox="0 0 216 13" fill="none" xmlns="http://www.w3.org/2000/svg">
<line x1="-4.75743e-08" y1="5.45581" x2="54" y2="5.45581" stroke="white" stroke-width="1.08837" stroke-dasharray="4 4"/>
<line x1="158" y1="5.45581" x2="216" y2="5.45581" stroke="white" stroke-width="1.08837" stroke-dasharray="4 4"/>
<path d="M134.012 0C135.43 0 136.664 1.23347 136.664 2.59029C136.656 3.06858 136.523 3.53654 136.279 3.94767C136.034 4.35881 135.686 4.6988 135.27 4.93388C135.886 4.62551 136.787 4.62551 136.787 4.62551C138.329 4.62551 139.562 5.73564 139.562 7.27748C139.562 8.81932 138.329 9.86777 136.787 9.86777C136.787 9.86777 135.862 9.86777 134.628 9.25103C134.628 9.25103 134.443 10.4845 135.862 12.3347H132.161C133.58 10.4845 133.395 9.25103 133.395 9.25103C132.161 9.86777 131.236 9.86777 131.236 9.86777C129.694 9.86777 128.461 8.81932 128.461 7.27748C128.461 5.73564 129.694 4.62551 131.236 4.62551C131.236 4.62551 132.137 4.62551 132.753 4.93388C132.568 4.82904 131.415 4.1753 131.36 2.59029C131.36 1.23347 132.593 0 134.012 0Z" fill="white"/>
<path d="M111.301 5.66273L115.296 0.336416C115.374 0.231962 115.476 0.147183 115.593 0.0887911C115.709 0.0303995 115.838 0 115.969 0C116.099 0 116.228 0.0303995 116.345 0.0887911C116.462 0.147183 116.563 0.231962 116.642 0.336416L120.637 5.66273C120.746 5.80831 120.805 5.98538 120.805 6.16735C120.805 6.34933 120.746 6.5264 120.637 6.67198L116.642 11.9983C116.563 12.1027 116.462 12.1875 116.345 12.2459C116.228 12.3043 116.099 12.3347 115.969 12.3347C115.838 12.3347 115.709 12.3043 115.593 12.2459C115.476 12.1875 115.374 12.1027 115.296 11.9983L111.301 6.67198C111.192 6.5264 111.133 6.34933 111.133 6.16735C111.133 5.98538 111.192 5.80831 111.301 5.66273Z" fill="white"/>
<path d="M98.4456 0C96.5954 3.08368 93.5117 4.31715 93.5117 7.40082C93.5117 8.63429 94.7452 9.86777 95.9787 9.86777C96.5954 9.86777 97.2121 9.86777 97.8289 9.25103C97.8289 9.25103 98.0262 10.4845 96.5954 12.3347H100.296C99.0623 10.4845 99.0623 9.25103 99.0623 9.25103C99.6791 9.86777 100.296 9.86777 100.913 9.86777C102.146 9.86777 103.379 8.63429 103.379 7.40082C103.379 4.31715 100.296 3.08368 98.4456 0Z" fill="white"/>
<path d="M79.1219 12.3347L78.1425 11.4474C74.6638 8.30828 72.3672 6.23121 72.3672 3.69705C72.3672 1.61998 74.0018 0 76.0823 0C77.2576 0 78.3856 0.544475 79.1219 1.39816C79.8582 0.544475 80.9862 0 82.1615 0C84.242 0 85.8766 1.61998 85.8766 3.69705C85.8766 6.23121 83.58 8.30828 80.1013 11.4474L79.1219 12.3347Z" fill="white"/>
</svg>
